<?xml version="1.0" encoding="utf-8"?>
<!-- Generator: Adobe Illustrator 24.2.0, SVG Export Plug-In . SVG Version: 6.00 Build 0)  -->
<svg version="1.1" xmlns="http://www.w3.org/2000/svg" xmlns:xlink="http://www.w3.org/1999/xlink" x="0px" y="0px"
	 viewBox="0 0 572.1 631.7" style="enable-background:new 0 0 572.1 631.7;" xml:space="preserve">
<style type="text/css">
	.st0{display:none;}
	.st1{display:inline;opacity:0.3;}
	.st2{fill:url(#SVGID_1_);}
	.st3{display:inline;}
	.st4{fill:#FFFFFF;}
	.st5{fill-rule:evenodd;clip-rule:evenodd;}
</style>
<g id="FreeVector.com_BG" class="st0">
	<g class="st1">
		<g>
			<radialGradient id="SVGID_1_" cx="277.4267" cy="317.9669" r="290.9245" gradientUnits="userSpaceOnUse">
				<stop  offset="0" style="stop-color:#FFFFFF"/>
				<stop  offset="0" style="stop-color:#F79DD4"/>
				<stop  offset="0.168" style="stop-color:#E07CC1"/>
				<stop  offset="0.4343" style="stop-color:#C04FA7"/>
				<stop  offset="0.6713" style="stop-color:#A82E94"/>
				<stop  offset="0.868" style="stop-color:#9A1988"/>
				<stop  offset="1" style="stop-color:#951284"/>
			</radialGradient>
			<rect x="-51.8" y="71.2" class="st2" width="658.5" height="493.5"/>
		</g>
	</g>
</g>
<g id="FreeVector.com_License" class="st0">
	<g class="st3">
		<g id="FreeVector.com_Logo_20_">
			<g id="FreeVector.com_Logo_21_">
				<path d="M73.3,575.5c0-0.9-0.8-1.5-1.6-1.5c-1.9,0-2.1,1.6-2.1,3c0,1.3,0.6,2.7,2,2.7c1.1,0,1.7-0.7,1.9-1.7h3.2
					c-0.3,2.7-2.4,4.3-5.1,4.3c-3,0-5.3-2.1-5.3-5.2c0-3.2,2-5.5,5.3-5.5c2.5,0,4.8,1.3,5,4H73.3z"/>
				<path d="M81.9,571.6c-3.1,0-5.3,2.3-5.3,5.3c0,3,2.2,5.3,5.3,5.3c3.1,0,5.3-2.3,5.3-5.3C87.2,573.9,85,571.6,81.9,571.6z"/>
				<path d="M64.6,579.1c-0.9,0-1.5,0.6-1.5,1.5c0,0.8,0.6,1.5,1.5,1.5c0.9,0,1.5-0.6,1.5-1.5C66,579.7,65.4,579.1,64.6,579.1z"/>
				<path d="M87.5,572.2h3.1v1.4h0c0.6-1,1.6-1.6,2.8-1.6c1.2,0,2.3,0.4,2.9,1.6c0.8-1,1.7-1.6,3.1-1.6c3.1,0,3.5,2.4,3.5,4.3v5.9
					h-3.2v-5.8c0-1.1-0.5-1.7-1.3-1.7c-1.4,0-1.5,1.1-1.5,2.7v4.8h-3.2v-5.6c0-1.2-0.3-1.9-1.2-1.9c-1.2,0-1.7,0.7-1.7,2.7v4.8h-3.2
					V572.2z"/>
				<polygon points="21.7,582 18.1,582 14.8,572.2 18.1,572.2 19.9,578.7 20,578.7 21.8,572.2 25,572.2 				"/>
				<path d="M26.8,577.9c0.1,1.3,0.8,2.2,2.2,2.2c0.8,0,1.5-0.4,1.8-1.1h3c-0.6,2.3-2.7,3.2-4.9,3.2c-3.2,0-5.3-1.9-5.3-5.2
					c0-3,2.4-5.1,5.3-5.1c3.5,0,5.2,2.6,5.1,5.9H26.8z"/>
				<path d="M40.8,575.8c0-0.8-0.8-1.4-1.6-1.4c-1.8,0-2.1,1.5-2.1,2.9c0,1.3,0.5,2.6,1.9,2.6c1.1,0,1.7-0.6,1.8-1.7H44
					c-0.3,2.6-2.3,4.1-4.9,4.1c-2.9,0-5.1-2-5.1-5c0-3.1,2-5.3,5.1-5.3c2.4,0,4.6,1.3,4.8,3.9H40.8z"/>
				<path d="M50,574.3h-2v4.4c0,0.8,0.5,0.9,1.1,0.9c0.3,0,0.5,0,0.8,0v2.4c-0.6,0-1.2,0.1-1.7,0.1c-2.7,0-3.4-0.8-3.4-3.4v-4.3
					h-1.6v-2.1h1.6v-3h3.2v3h2V574.3z"/>
				<path d="M54.4,572c-3,0-5.1,2.2-5.1,5.2c0,2.9,2.1,5.2,5.1,5.2c3,0,5.2-2.2,5.2-5.2C59.6,574.2,57.5,572,54.4,572z"/>
				<path d="M59.4,572.2h3.1v1.7h0c0.5-1.2,1.6-1.9,2.9-1.9c0.2,0,0.5,0,0.8,0.1v2.9c-0.4-0.1-0.8-0.2-1.2-0.2
					c-1.6,0-2.4,1.1-2.4,2.3v4.8h-3.2V572.2z"/>
				<path d="M-10.3,572.2h3.1v1.7h0c0.5-1.2,1.6-1.9,2.9-1.9c0.2,0,0.5,0,0.7,0.1v2.9c-0.4-0.1-0.8-0.2-1.2-0.2
					c-1.6,0-2.4,1.1-2.4,2.3v4.8h-3.2V572.2z"/>
				<path d="M-1.4,577.9c0.1,1.3,0.8,2.2,2.2,2.2c0.8,0,1.5-0.4,1.8-1.1h3c-0.6,2.3-2.7,3.2-4.9,3.2c-3.2,0-5.3-1.9-5.3-5.2
					c0-3,2.4-5.1,5.3-5.1c3.5,0,5.2,2.6,5.1,5.9H-1.4z"/>
				<path d="M8.7,577.9c0.1,1.3,0.8,2.2,2.2,2.2c0.8,0,1.5-0.4,1.8-1.1h3c-0.6,2.3-2.7,3.2-4.9,3.2c-3.2,0-5.3-1.9-5.3-5.2
					c0-3,2.4-5.1,5.3-5.1c3.5,0,5.2,2.6,5.1,5.9H8.7z"/>
				<path d="M-10.9,570.8c0.3,0,0.6,0,0.9,0.1v-2.3c-0.5,0-1-0.1-1.5-0.1c-2.7,0-3.7,0.9-3.7,3.7h-1.5v2.1h1.5v7.7h3.2v-7.7h1.9
					v-2.1h-1.9v-0.4C-12.1,570.9-11.6,570.8-10.9,570.8z"/>
			</g>
			<g id="FreeVector_Icon_3_">
				<path class="st4" d="M-20,575.4c0,4-3.2,7.2-7.2,7.2c-4,0-7.2-3.2-7.2-7.2c0-4,3.2-7.2,7.2-7.2C-23.2,568.1-20,571.4-20,575.4z"
					/>
				<g>
					<path d="M-27.2,568.1c-0.7,0-1.3,0.1-1.9,0.2c0.2,0,0.4,0.2,0.5,0.5c0,0,1.4,4.5,1.5,5c0.2,0.5,0.4,1.1,0.4,1.1
						c-0.1,0.1-0.2,0.2-0.3,0.4c-0.1,0.3-0.2,0.5-0.2,0.8c-0.2-0.4-1-1.4-1.6-2c0,0,0-0.4-0.2-0.9c-0.1-0.4-0.9-3.3-0.9-3.3
						c-0.1-0.5-0.1-1,0.2-1.3c-2.8,1-4.9,3.7-4.9,6.8c0,2.9,1.7,5.3,4.1,6.5c-0.3-0.4-0.5-0.9-0.7-1.7c-0.2-1.3-0.3-2.2-0.4-2.9
						c-0.2-1-0.2-1.2,0.2-1.7c0.2-0.2,0.4-0.3,0.5-0.4c0.2,0,0.4,0.1,0.4,0.1c0.4,0.5,1.2,1.3,1.3,1.5c0.2,0.2,0.2,0.5,0.1,0.9
						c-0.1,0.1-0.2,0.2-0.3,0.2c-0.3,0.1-0.6,0-0.7-0.1c-0.2-0.2-1.3-1.2-1.3-1.2c0,0.3,0.8,0.9,1.2,1.3c0.2,0.2,0.6,0.2,0.9,0.1
						c0.2-0.1,0.4-0.2,0.5-0.3c0.1-0.3,0.1-0.5,0.1-0.7c0.3,0.2,0.6,0.3,0.9,0.2c0.3-0.1,0.5-0.3,0.6-0.4c0,0.2,0.1,0.4,0.1,0.7
						c0.1,0.6,0.2,1,0.3,1.2c0,0.1,0.1,0.2,0.1,0.2c0,0,0,0,0,0c-0.2,0.2-0.4,0.6-0.6,1.1c-0.1,0.3-0.2,0.8-0.2,1.2
						c0,0.1,0,0.4,0,0.4c0,0,0-0.2,0.1-0.4c0-0.4,0.1-0.8,0.2-1.1c0.2-0.4,0.4-0.7,0.6-1c0,0,0,0,0,0c0.1-0.1,0-0.2,0-0.3
						c-0.1-0.2-0.2-0.6-0.3-1.2c-0.1-0.9-0.2-1.3,0.1-2c0.3-0.6,1-0.6,1.2-0.5c0.1,0,0.1,0.4,0.1,0.7c0,0.3,0,0.8,0.1,1.3
						c0.1,0.7,0.3,1.2,0.6,1.5c0.2,0.2,0.4,0.3,0.4,0.3c0,0-0.1-0.2-0.3-0.4c-0.2-0.3-0.4-0.8-0.5-1.4c-0.1-0.5-0.1-0.9-0.1-1.3
						c0-0.5,0-0.8-0.2-0.9c-0.1,0-0.3-0.1-0.5,0l1.4-4.5c0.2-0.8,0.5-1.2,1-1.1c0,0,0,0,0,0C-24.7,568.4-25.9,568.1-27.2,568.1z
						 M-27.9,576.9c-0.4,0.1-0.8-0.2-1-0.4c-0.2-0.2-1.2-1.3-1.4-1.5c-0.3-0.3-0.1-0.9,0.6-1.2c0.2-0.1,0.5-0.1,0.6,0.1
						c0.8,0.9,1.6,1.9,1.6,2.1C-27.3,576.5-27.5,576.8-27.9,576.9z M-24.7,578.6L-24.7,578.6C-24.7,578.6-24.7,578.6-24.7,578.6
						C-24.7,578.6-24.7,578.6-24.7,578.6z"/>
					<path d="M-23.3,569.2c0.2,0.2,0.2,0.4,0.2,0.7l-1.2,5.4c-0.1,0.4-0.2,1.3-0.1,1.9c0.1,0.8,0.5,1.9,0.2,3.1
						c-0.1,0.6-0.3,1.3-0.6,1.9c2.9-1,5-3.7,5-6.8C-19.9,572.8-21.2,570.5-23.3,569.2z"/>
				</g>
			</g>
		</g>
		<g id="Legal_Line">
			<g>
				<path d="M117.3,572.5h2.5v9.6h-2.5V572.5z"/>
				<path d="M121.5,575.1h2.2v1h0c0.4-0.7,1.2-1.2,2-1.2c0.9,0,1.7,0.3,2,1.1c0.6-0.7,1.2-1.1,2.2-1.1c2.2,0,2.5,1.7,2.5,3v4.2h-2.3
					V578c0-0.8-0.4-1.2-1-1.2c-1,0-1.1,0.8-1.1,1.9v3.4h-2.3v-4c0-0.8-0.2-1.3-0.9-1.3c-0.8,0-1.2,0.5-1.2,1.9v3.4h-2.3V575.1z"/>
				<path d="M133.8,577.2c0-0.9,0.5-1.5,1.1-1.9c0.6-0.3,1.4-0.5,2.2-0.5c1.7,0,3.3,0.4,3.3,2.3v3c0,0.6,0,1.2,0.3,1.8h-2.3
					c-0.1-0.2-0.1-0.4-0.1-0.7c-0.6,0.6-1.5,0.9-2.3,0.9c-1.3,0-2.4-0.7-2.4-2.1c0-2.3,2.5-2.1,4.1-2.4c0.4-0.1,0.6-0.2,0.6-0.6
					c0-0.5-0.6-0.7-1.1-0.7c-0.6,0-1,0.3-1.1,0.9H133.8z M136.8,580.9c1.1,0,1.5-0.6,1.4-2.1c-0.3,0.2-0.9,0.2-1.4,0.4
					c-0.5,0.1-0.9,0.3-0.9,0.9C135.8,580.6,136.3,580.9,136.8,580.9z"/>
				<path d="M148.6,581.2c0,1.1-0.2,3.3-3.5,3.3c-1.6,0-3.2-0.4-3.4-2.2h2.3c0.1,0.3,0.2,0.5,0.4,0.6c0.2,0.1,0.5,0.1,0.8,0.1
					c1.1,0,1.2-0.8,1.2-1.6v-0.7h0c-0.4,0.6-1.1,1-1.9,1c-2.1,0-3.1-1.5-3.1-3.5c0-1.9,1.1-3.4,3.1-3.4c0.8,0,1.5,0.4,1.9,1.1h0
					v-0.9h2.2V581.2z M145.1,576.6c-1,0-1.3,0.9-1.3,1.7c0,0.8,0.4,1.6,1.3,1.6c1,0,1.4-0.8,1.4-1.6
					C146.5,577.5,146.1,576.6,145.1,576.6z"/>
				<path d="M152,579.1c0,1,0.6,1.6,1.6,1.6c0.6,0,1.1-0.3,1.3-0.8h2.1c-0.4,1.6-1.9,2.3-3.5,2.3c-2.3,0-3.8-1.4-3.8-3.7
					c0-2.1,1.7-3.7,3.8-3.7c2.5,0,3.7,1.9,3.6,4.2H152z M154.9,577.9c0-0.8-0.6-1.4-1.4-1.4c-0.8,0-1.3,0.6-1.5,1.4H154.9z"/>
				<path d="M160,579.8c0,0.3,0.1,0.6,0.4,0.8c0.2,0.2,0.5,0.2,0.8,0.2c0.4,0,1.1-0.2,1.1-0.7c0-0.5-0.7-0.6-1.1-0.7
					c-1.4-0.4-3.2-0.4-3.2-2.3c0-1.7,1.8-2.1,3.2-2.1c1.5,0,3.1,0.4,3.2,2.3h-2.1c0-0.3-0.1-0.5-0.3-0.6c-0.2-0.1-0.4-0.2-0.7-0.2
					c-0.4,0-1,0-1,0.5c0,0.7,1.5,0.8,2.6,1c1.4,0.3,1.8,1.3,1.8,1.9c0,1.9-1.8,2.5-3.3,2.5c-1.7,0-3.3-0.6-3.4-2.5H160z"/>
			</g>
			<g>
				<path d="M169.9,577.2c0-0.9,0.5-1.5,1.1-1.9c0.6-0.3,1.4-0.5,2.2-0.5c1.7,0,3.3,0.4,3.3,2.3v3c0,0.6,0,1.2,0.3,1.8h-2.3
					c-0.1-0.2-0.1-0.4-0.1-0.7c-0.6,0.6-1.5,0.9-2.3,0.9c-1.3,0-2.4-0.7-2.4-2.1c0-2.3,2.5-2.1,4.1-2.4c0.4-0.1,0.6-0.2,0.6-0.6
					c0-0.5-0.6-0.7-1.1-0.7c-0.6,0-1,0.3-1.1,0.9H169.9z M172.8,580.9c1.1,0,1.5-0.6,1.4-2.1c-0.3,0.2-0.9,0.2-1.4,0.4
					c-0.5,0.1-0.9,0.3-0.9,0.9C171.9,580.6,172.3,580.9,172.8,580.9z"/>
				<path d="M178,575.1h2.2v1.2h0c0.3-0.9,1.1-1.4,2.1-1.4c0.2,0,0.4,0,0.5,0.1v2.1c-0.3-0.1-0.6-0.1-0.9-0.1
					c-1.1,0-1.7,0.8-1.7,1.7v3.5H178V575.1z"/>
				<path d="M185.4,579.1c0,1,0.6,1.6,1.6,1.6c0.6,0,1.1-0.3,1.3-0.8h2.1c-0.4,1.6-1.9,2.3-3.5,2.3c-2.3,0-3.8-1.4-3.8-3.7
					c0-2.1,1.7-3.7,3.8-3.7c2.5,0,3.7,1.9,3.6,4.2H185.4z M188.2,577.9c0-0.8-0.6-1.4-1.4-1.4c-0.8,0-1.3,0.6-1.5,1.4H188.2z"/>
			</g>
			<g>
				<path d="M195.8,575.1h2.2v0.8h0c0.4-0.7,1.1-1,1.9-1c2.2,0,3.1,1.9,3.1,3.8c0,1.8-1,3.5-2.9,3.5c-0.9,0-1.5-0.3-2-1h0v3.1h-2.3
					V575.1z M198,578.5c0,1.2,0.3,2,1.4,2c1,0,1.4-1.1,1.4-2c0-0.9-0.3-1.9-1.4-1.9C198.8,576.6,198,577.1,198,578.5z"/>
				<path d="M204.4,575.1h2.2v1.2h0c0.3-0.9,1.1-1.4,2.1-1.4c0.2,0,0.4,0,0.5,0.1v2.1c-0.3-0.1-0.6-0.1-0.9-0.1
					c-1.1,0-1.7,0.8-1.7,1.7v3.5h-2.3V575.1z"/>
				<path d="M213.1,574.9c2.2,0,3.7,1.6,3.7,3.7c0,2.1-1.5,3.7-3.7,3.7c-2.2,0-3.7-1.6-3.7-3.7C209.4,576.5,210.9,574.9,213.1,574.9
					z M213.1,580.5c1.1,0,1.4-1,1.4-1.9c0-0.9-0.3-1.9-1.4-1.9c-1.1,0-1.4,1.1-1.4,1.9C211.7,579.5,212,580.5,213.1,580.5z"/>
				<path d="M218,575.1h2.2v0.8h0c0.4-0.7,1.1-1,1.9-1c2.2,0,3.1,1.9,3.1,3.8c0,1.8-1,3.5-2.9,3.5c-0.9,0-1.5-0.3-2-1h0v3.1H218
					V575.1z M220.2,578.5c0,1.2,0.3,2,1.4,2c1,0,1.4-1.1,1.4-2c0-0.9-0.3-1.9-1.4-1.9C220.9,576.6,220.2,577.1,220.2,578.5z"/>
				<path d="M228.4,579.1c0,1,0.6,1.6,1.6,1.6c0.6,0,1.1-0.3,1.3-0.8h2.1c-0.4,1.6-1.9,2.3-3.5,2.3c-2.3,0-3.8-1.4-3.8-3.7
					c0-2.1,1.7-3.7,3.8-3.7c2.5,0,3.7,1.9,3.6,4.2H228.4z M231.2,577.9c0-0.8-0.6-1.4-1.4-1.4c-0.8,0-1.3,0.6-1.5,1.4H231.2z"/>
				<path d="M234.7,575.1h2.2v1.2h0c0.3-0.9,1.1-1.4,2.1-1.4c0.2,0,0.4,0,0.5,0.1v2.1c-0.3-0.1-0.6-0.1-0.9-0.1
					c-1.1,0-1.7,0.8-1.7,1.7v3.5h-2.3V575.1z"/>
				<path d="M244.5,576.6h-1.4v3.2c0,0.5,0.3,0.7,0.8,0.7c0.2,0,0.4,0,0.6,0v1.7c-0.4,0-0.8,0.1-1.2,0.1c-1.9,0-2.4-0.6-2.4-2.5
					v-3.1h-1.2v-1.5h1.2V573h2.3v2.1h1.4V576.6z"/>
				<path d="M249.4,582.7c-0.6,1.5-1.4,1.7-2.9,1.7h-1.1v-1.9h0.8c0.5,0,0.9-0.3,0.9-0.8c0-0.4-0.4-1.4-0.6-1.8l-1.8-4.8h2.4
					l1.3,4.5h0l1.3-4.5h2.3L249.4,582.7z"/>
			</g>
			<g>
				<path d="M260.3,574.9c2.2,0,3.7,1.6,3.7,3.7c0,2.1-1.5,3.7-3.7,3.7c-2.2,0-3.7-1.6-3.7-3.7C256.7,576.5,258.2,574.9,260.3,574.9
					z M260.3,580.5c1.1,0,1.4-1,1.4-1.9c0-0.9-0.3-1.9-1.4-1.9c-1.1,0-1.4,1.1-1.4,1.9C259,579.5,259.3,580.5,260.3,580.5z"/>
				<path d="M265.7,576.6h-1.1v-1.5h1.1c0-2,0.7-2.6,2.6-2.6c0.4,0,0.7,0,1.1,0v1.6c-0.2,0-0.4,0-0.6,0c-0.5,0-0.8,0.1-0.8,0.7v0.3
					h1.4v1.5H268v5.5h-2.3V576.6z"/>
			</g>
			<g>
				<path d="M278.6,576.6h-1.4v3.2c0,0.5,0.3,0.7,0.8,0.7c0.2,0,0.4,0,0.6,0v1.7c-0.4,0-0.8,0.1-1.2,0.1c-1.9,0-2.4-0.6-2.4-2.5
					v-3.1h-1.2v-1.5h1.2V573h2.3v2.1h1.4V576.6z"/>
				<path d="M279.6,572.5h2.3v3.6h0c0.3-0.7,1.3-1.2,2.1-1.2c2.3,0,2.5,1.7,2.5,2.7v4.5h-2.3v-3.4c0-1,0.1-1.9-1.1-1.9
					c-0.9,0-1.2,0.7-1.2,1.5v3.8h-2.3V572.5z"/>
				<path d="M290,579.1c0,1,0.6,1.6,1.6,1.6c0.6,0,1.1-0.3,1.3-0.8h2.1c-0.4,1.6-1.9,2.3-3.5,2.3c-2.3,0-3.8-1.4-3.8-3.7
					c0-2.1,1.7-3.7,3.8-3.7c2.5,0,3.7,1.9,3.6,4.2H290z M292.9,577.9c0-0.8-0.6-1.4-1.4-1.4c-0.8,0-1.3,0.6-1.5,1.4H292.9z"/>
			</g>
			<g>
				<path d="M307.4,582.1h-2.2v-0.8h0c-0.4,0.7-1.1,1-1.9,1c-2.2,0-3.1-1.9-3.1-3.8c0-1.8,1-3.5,2.9-3.5c0.9,0,1.5,0.3,2,1h0v-3.4
					h2.3V582.1z M302.5,578.5c0,1,0.3,2,1.4,2c1.1,0,1.4-1.1,1.4-1.9c0-1-0.4-1.9-1.4-1.9C302.8,576.6,302.5,577.6,302.5,578.5z"/>
				<path d="M310.9,579.1c0,1,0.6,1.6,1.6,1.6c0.6,0,1.1-0.3,1.3-0.8h2.1c-0.4,1.6-1.9,2.3-3.5,2.3c-2.3,0-3.8-1.4-3.8-3.7
					c0-2.1,1.7-3.7,3.8-3.7c2.5,0,3.7,1.9,3.6,4.2H310.9z M313.7,577.9c0-0.8-0.6-1.4-1.4-1.4c-0.8,0-1.3,0.6-1.5,1.4H313.7z"/>
				<path d="M318.9,579.8c0,0.3,0.1,0.6,0.4,0.8c0.2,0.2,0.5,0.2,0.8,0.2c0.4,0,1.1-0.2,1.1-0.7c0-0.5-0.7-0.6-1.1-0.7
					c-1.4-0.4-3.2-0.4-3.2-2.3c0-1.7,1.8-2.1,3.2-2.1c1.5,0,3.1,0.4,3.2,2.3h-2.1c0-0.3-0.1-0.5-0.3-0.6c-0.2-0.1-0.4-0.2-0.7-0.2
					c-0.4,0-1,0-1,0.5c0,0.7,1.5,0.8,2.6,1c1.4,0.3,1.8,1.3,1.8,1.9c0,1.9-1.8,2.5-3.3,2.5c-1.7,0-3.3-0.6-3.4-2.5H318.9z"/>
				<path d="M327,574.2h-2.3v-1.7h2.3V574.2z M324.7,575.1h2.3v7h-2.3V575.1z"/>
				<path d="M335.3,581.2c0,1.1-0.2,3.3-3.5,3.3c-1.6,0-3.2-0.4-3.4-2.2h2.3c0.1,0.3,0.2,0.5,0.4,0.6c0.2,0.1,0.5,0.1,0.8,0.1
					c1.1,0,1.2-0.8,1.2-1.6v-0.7h0c-0.4,0.6-1.1,1-1.9,1c-2.1,0-3.1-1.5-3.1-3.5c0-1.9,1.1-3.4,3.1-3.4c0.8,0,1.5,0.4,1.9,1.1h0
					v-0.9h2.2V581.2z M331.8,576.6c-1,0-1.3,0.9-1.3,1.7c0,0.8,0.4,1.6,1.3,1.6c1,0,1.4-0.8,1.4-1.6
					C333.2,577.5,332.8,576.6,331.8,576.6z"/>
				<path d="M336.8,575.1h2.2v1h0c0.4-0.7,1.4-1.2,2.2-1.2c2.3,0,2.5,1.7,2.5,2.7v4.5h-2.3v-3.4c0-1,0.1-1.9-1.1-1.9
					c-0.9,0-1.2,0.7-1.2,1.5v3.8h-2.3V575.1z"/>
				<path d="M347.2,579.1c0,1,0.6,1.6,1.6,1.6c0.6,0,1.1-0.3,1.3-0.8h2.1c-0.4,1.6-1.9,2.3-3.5,2.3c-2.3,0-3.8-1.4-3.8-3.7
					c0-2.1,1.7-3.7,3.8-3.7c2.5,0,3.7,1.9,3.6,4.2H347.2z M350,577.9c0-0.8-0.6-1.4-1.4-1.4c-0.8,0-1.3,0.6-1.5,1.4H350z"/>
				<path d="M353.5,575.1h2.2v1.2h0c0.3-0.9,1.1-1.4,2.1-1.4c0.2,0,0.4,0,0.5,0.1v2.1c-0.3-0.1-0.6-0.1-0.9-0.1
					c-1.1,0-1.7,0.8-1.7,1.7v3.5h-2.3V575.1z"/>
			</g>
			<path d="M358.1,579.6h2.5v2.5h-2.5V579.6z"/>
			<g>
				<path d="M375.8,575.9c-0.1-1-0.9-1.5-1.9-1.5c-1.6,0-2.2,1.4-2.2,2.8c0,1.4,0.6,2.8,2.2,2.8c1.2,0,1.8-0.7,1.9-1.8h2.5
					c-0.1,2.5-1.9,3.9-4.4,3.9c-2.9,0-4.8-2.2-4.8-5c0-2.8,1.9-5,4.8-5c2.1,0,4.3,1.3,4.4,3.6H375.8z"/>
				<path d="M379.5,572.5h2.3v3.6h0c0.3-0.7,1.3-1.2,2.1-1.2c2.3,0,2.5,1.7,2.5,2.7v4.5h-2.3v-3.4c0-1,0.1-1.9-1.1-1.9
					c-0.9,0-1.2,0.7-1.2,1.5v3.8h-2.3V572.5z"/>
				<path d="M389.9,579.1c0,1,0.6,1.6,1.6,1.6c0.6,0,1.1-0.3,1.3-0.8h2.1c-0.4,1.6-1.9,2.3-3.5,2.3c-2.3,0-3.8-1.4-3.8-3.7
					c0-2.1,1.7-3.7,3.8-3.7c2.5,0,3.7,1.9,3.6,4.2H389.9z M392.8,577.9c0-0.8-0.6-1.4-1.4-1.4c-0.8,0-1.3,0.6-1.5,1.4H392.8z"/>
				<path d="M400.7,577.6c0-0.6-0.5-1-1.1-1c-1.3,0-1.5,1.1-1.5,2.1c0,0.9,0.4,1.8,1.4,1.8c0.8,0,1.2-0.5,1.3-1.2h2.2
					c-0.2,1.9-1.7,2.9-3.5,2.9c-2.1,0-3.7-1.4-3.7-3.6c0-2.2,1.4-3.8,3.7-3.8c1.7,0,3.3,0.9,3.4,2.8H400.7z"/>
				<path d="M404.2,572.5h2.3v4.9l2.1-2.3h2.6l-2.6,2.6l2.9,4.3h-2.8l-1.7-2.8l-0.6,0.6v2.2h-2.3V572.5z"/>
			</g>
			<g>
				<path d="M416.4,572.5h2.3v9.6h-2.3V572.5z"/>
				<path d="M422.7,574.2h-2.3v-1.7h2.3V574.2z M420.4,575.1h2.3v7h-2.3V575.1z"/>
				<path d="M428.8,577.6c0-0.6-0.5-1-1.1-1c-1.3,0-1.5,1.1-1.5,2.1c0,0.9,0.4,1.8,1.4,1.8c0.8,0,1.2-0.5,1.3-1.2h2.2
					c-0.2,1.9-1.7,2.9-3.5,2.9c-2.1,0-3.7-1.4-3.7-3.6c0-2.2,1.4-3.8,3.7-3.8c1.7,0,3.3,0.9,3.4,2.8H428.8z"/>
				<path d="M434.2,579.1c0,1,0.6,1.6,1.6,1.6c0.6,0,1.1-0.3,1.3-0.8h2.1c-0.4,1.6-1.9,2.3-3.5,2.3c-2.3,0-3.8-1.4-3.8-3.7
					c0-2.1,1.7-3.7,3.8-3.7c2.5,0,3.7,1.9,3.6,4.2H434.2z M437,577.9c0-0.8-0.6-1.4-1.4-1.4c-0.8,0-1.3,0.6-1.5,1.4H437z"/>
				<path d="M440.5,575.1h2.2v1h0c0.4-0.7,1.4-1.2,2.2-1.2c2.3,0,2.5,1.7,2.5,2.7v4.5h-2.3v-3.4c0-1,0.1-1.9-1.1-1.9
					c-0.9,0-1.2,0.7-1.2,1.5v3.8h-2.3V575.1z"/>
				<path d="M450.7,579.8c0,0.3,0.1,0.6,0.4,0.8c0.2,0.2,0.5,0.2,0.8,0.2c0.4,0,1.1-0.2,1.1-0.7c0-0.5-0.7-0.6-1.1-0.7
					c-1.4-0.4-3.2-0.4-3.2-2.3c0-1.7,1.8-2.1,3.2-2.1c1.5,0,3.1,0.4,3.2,2.3h-2.1c0-0.3-0.1-0.5-0.3-0.6c-0.2-0.1-0.4-0.2-0.7-0.2
					c-0.4,0-1,0-1,0.5c0,0.7,1.5,0.8,2.6,1c1.4,0.3,1.8,1.3,1.8,1.9c0,1.9-1.8,2.5-3.3,2.5c-1.7,0-3.3-0.6-3.4-2.5H450.7z"/>
				<path d="M458.3,579.1c0,1,0.6,1.6,1.6,1.6c0.5,0,1.1-0.3,1.3-0.8h2.1c-0.4,1.6-1.9,2.3-3.5,2.3c-2.3,0-3.8-1.4-3.8-3.7
					c0-2.1,1.7-3.7,3.8-3.7c2.5,0,3.7,1.9,3.6,4.2H458.3z M461.2,577.9c0-0.8-0.6-1.4-1.4-1.4c-0.8,0-1.3,0.6-1.5,1.4H461.2z"/>
			</g>
			<g>
				<path d="M469.3,576.6h-1.1v-1.5h1.1c0-2,0.7-2.6,2.6-2.6c0.4,0,0.7,0,1.1,0v1.6c-0.2,0-0.4,0-0.6,0c-0.5,0-0.8,0.1-0.8,0.7v0.3
					h1.4v1.5h-1.4v5.5h-2.3V576.6z"/>
				<path d="M477.1,574.9c2.2,0,3.7,1.6,3.7,3.7c0,2.1-1.5,3.7-3.7,3.7c-2.2,0-3.7-1.6-3.7-3.7C473.4,576.5,474.9,574.9,477.1,574.9
					z M477.1,580.5c1.1,0,1.4-1,1.4-1.9c0-0.9-0.3-1.9-1.4-1.9c-1.1,0-1.4,1.1-1.4,1.9C475.7,579.5,476,580.5,477.1,580.5z"/>
				<path d="M482.1,575.1h2.2v1.2h0c0.3-0.9,1.1-1.4,2.1-1.4c0.2,0,0.4,0,0.5,0.1v2.1c-0.3-0.1-0.6-0.1-0.9-0.1
					c-1.1,0-1.7,0.8-1.7,1.7v3.5h-2.3V575.1z"/>
			</g>
			<g>
				<path d="M491.9,575.1h2.2v0.8h0c0.4-0.7,1.1-1,1.9-1c2.2,0,3.1,1.9,3.1,3.8c0,1.8-1,3.5-2.9,3.5c-0.9,0-1.5-0.3-2-1h0v3.1h-2.3
					V575.1z M494.1,578.5c0,1.2,0.3,2,1.4,2c1,0,1.4-1.1,1.4-2c0-0.9-0.4-1.9-1.4-1.9C494.9,576.6,494.1,577.1,494.1,578.5z"/>
				<path d="M502.3,579.1c0,1,0.6,1.6,1.6,1.6c0.6,0,1.1-0.3,1.3-0.8h2.1c-0.4,1.6-1.9,2.3-3.5,2.3c-2.3,0-3.8-1.4-3.8-3.7
					c0-2.1,1.7-3.7,3.8-3.7c2.5,0,3.7,1.9,3.6,4.2H502.3z M505.2,577.9c0-0.8-0.6-1.4-1.4-1.4c-0.8,0-1.3,0.6-1.5,1.4H505.2z"/>
				<path d="M508.7,575.1h2.2v1.2h0c0.3-0.9,1.1-1.4,2.1-1.4c0.2,0,0.4,0,0.5,0.1v2.1c-0.3-0.1-0.6-0.1-0.9-0.1
					c-1.1,0-1.7,0.8-1.7,1.7v3.5h-2.3V575.1z"/>
				<path d="M514.3,575.1h2.2v1h0c0.4-0.7,1.2-1.2,2-1.2c0.9,0,1.7,0.3,2,1.1c0.6-0.7,1.2-1.1,2.2-1.1c2.2,0,2.5,1.7,2.5,3v4.2h-2.3
					V578c0-0.8-0.4-1.2-1-1.2c-1,0-1.1,0.8-1.1,1.9v3.4h-2.3v-4c0-0.8-0.2-1.3-0.9-1.3c-0.8,0-1.2,0.5-1.2,1.9v3.4h-2.3V575.1z"/>
				<path d="M529.1,574.2h-2.3v-1.7h2.3V574.2z M526.8,575.1h2.3v7h-2.3V575.1z"/>
				<path d="M534.9,576.6h-1.4v3.2c0,0.5,0.3,0.7,0.8,0.7c0.2,0,0.4,0,0.6,0v1.7c-0.4,0-0.8,0.1-1.2,0.1c-1.9,0-2.4-0.6-2.4-2.5
					v-3.1h-1.2v-1.5h1.2V573h2.3v2.1h1.4V576.6z"/>
				<path d="M540.1,576.6h-1.4v3.2c0,0.5,0.3,0.7,0.8,0.7c0.2,0,0.4,0,0.6,0v1.7c-0.4,0-0.8,0.1-1.2,0.1c-1.9,0-2.4-0.6-2.4-2.5
					v-3.1h-1.2v-1.5h1.2V573h2.3v2.1h1.4V576.6z"/>
				<path d="M543.1,579.1c0,1,0.6,1.6,1.6,1.6c0.6,0,1.1-0.3,1.3-0.8h2.1c-0.4,1.6-1.9,2.3-3.5,2.3c-2.3,0-3.8-1.4-3.8-3.7
					c0-2.1,1.7-3.7,3.8-3.7c2.5,0,3.7,1.9,3.6,4.2H543.1z M545.9,577.9c0-0.8-0.6-1.4-1.4-1.4c-0.8,0-1.3,0.6-1.5,1.4H545.9z"/>
				<path d="M556.3,582.1h-2.2v-0.8h0c-0.4,0.7-1.1,1-1.9,1c-2.2,0-3.1-1.9-3.1-3.8c0-1.8,1-3.5,2.9-3.5c0.9,0,1.5,0.3,2,1h0v-3.4
					h2.3V582.1z M551.3,578.5c0,1,0.3,2,1.4,2c1.1,0,1.4-1.1,1.4-1.9c0-1-0.4-1.9-1.4-1.9C551.6,576.6,551.3,577.6,551.3,578.5z"/>
			</g>
			<g>
				<path d="M569,582.1h-2.2v-1h0c-0.4,0.7-1.3,1.2-2.1,1.2c-2,0-2.6-1.2-2.6-3v-4.2h2.3v4c0,0.9,0.4,1.2,1.1,1.2
					c0.5,0,1.2-0.3,1.2-1.6v-3.7h2.3V582.1z"/>
				<path d="M572.3,579.8c0,0.3,0.1,0.6,0.4,0.8c0.2,0.2,0.5,0.2,0.8,0.2c0.4,0,1.1-0.2,1.1-0.7c0-0.5-0.7-0.6-1.1-0.7
					c-1.4-0.4-3.2-0.4-3.2-2.3c0-1.7,1.8-2.1,3.2-2.1c1.5,0,3.1,0.4,3.2,2.3h-2.1c0-0.3-0.1-0.5-0.3-0.6c-0.2-0.1-0.4-0.2-0.7-0.2
					c-0.4,0-1,0-1,0.5c0,0.7,1.5,0.8,2.6,1c1.4,0.3,1.8,1.3,1.8,1.9c0,1.9-1.8,2.5-3.3,2.5c-1.7,0-3.3-0.6-3.4-2.5H572.3z"/>
				<path d="M579.9,579.1c0,1,0.6,1.6,1.6,1.6c0.6,0,1.1-0.3,1.3-0.8h2.1c-0.4,1.6-1.9,2.3-3.5,2.3c-2.3,0-3.8-1.4-3.8-3.7
					c0-2.1,1.7-3.7,3.8-3.7c2.5,0,3.7,1.9,3.6,4.2H579.9z M582.7,577.9c0-0.8-0.6-1.4-1.4-1.4c-0.8,0-1.3,0.6-1.5,1.4H582.7z"/>
			</g>
			<path d="M586.3,579.6h2.5v2.5h-2.5V579.6z"/>
		</g>
	</g>
</g>
<g id="Vector_Graphics">
	<g>
		<path class="st5" d="M331.8,301.4c-2.1-11.6-15.2-30.4-32.8-31.2c-11.8-0.5-28.5,14.4-20.5,27.9c4,6.8,15.9,2.2,18.7-5.9
			C302.9,276,325,289.1,331.8,301.4z"/>
		<path class="st5" d="M289.9,394.3c-2.3,12.7-14.8,43.4-37.6,69.3c0.7,1.4,37.5-24.2,55.5-57.9c10-18.8,9.4-42.6,4.3-54.2
			c-5-11.8-14.8-14.3-19.2-11.6C283.9,345.4,295.9,368.5,289.9,394.3z"/>
		<path class="st5" d="M216.1,455.6c-1.7,9.2-10.7,31.4-27.2,50.1c0.5,1,27.1-17.5,40.1-41.9c7.2-13.6,6.8-30.8,3.1-39.2
			c-3.6-8.6-10.7-10.3-13.9-8.4C211.7,420.2,220.4,436.9,216.1,455.6z"/>
		<path class="st5" d="M157.1,430.8c-3.4,6.8,1.7,15.9,5,23.4c7.5,16.9,9.9,46.2,4.8,59.2c-1.7,4.3-2.9,8.7-6.1,12.5
			c22.7-12.3,41-53.5,26.8-84.4C183.2,431.7,165.3,414.5,157.1,430.8z"/>
		<path class="st5" d="M77.5,546c0.1,2.4,7.3,3.6,15.6-2.4c8.3-5.6,14.5-19.8,9.6-32.6c-2.5-6.3-8.1-10.9-13.9-12.4
			c-5.7-1.5-11.6-0.4-15.1,2.6c-3.5,2.9-4.5,6.7-4.6,9.1c-0.1,2.4,0.5,3.7,0.4,3.7c0,0,0-0.2,0-0.6c0.3,1.5,1.1,3,2.2,4.1
			c3.2,3.2,8.5,3.2,11.7,0c3.2-3.2,3.2-8.5,0-11.7c-2.2-2.2-5.4-2.9-8.2-2c0,0,0.1-0.1,0.1-0.1c3-1.7,7.7-1.6,11.7,0.1
			c4,1.8,7.3,5.5,8.4,9.7c2.3,9.1-2.4,18.7-7.7,23.3C82.4,541.7,77.1,543.3,77.5,546z"/>
		<path class="st5" d="M337.1,192.8c0.8,3.8,3.2,6,4.9,7c1.8,1,2.9,1.1,2.9,1.2c0,0-0.2-0.1-0.5-0.3c1.2,0.4,2.6,0.4,4,0
			c3.7-1.1,5.7-5,4.6-8.7c-1.1-3.7-5-5.7-8.7-4.6c-2.5,0.8-4.3,2.9-4.7,5.3c0,0,0-0.1,0-0.1c-0.1-2.9,1.8-6.3,4.7-8.6
			c2.9-2.3,7-3.2,10.6-2.4c7.6,1.9,13,9.2,14.3,14.9c1.6,5.8,0.7,10.3,2.9,11.2c1.8,0.9,5.5-4,4.4-12.5c-0.9-8.3-9-18.6-20.5-20
			c-5.7-0.6-11.4,1.7-14.7,5.5C337.8,184.3,336.3,189,337.1,192.8z"/>
		<path class="st5" d="M375.1,218.1c-4.8,5.6,0.3,10.1,4.2,4.4c14.2-20.4,9.2-52.7-10-68c-8.4-6.7-18.9-12.5-27.5-13.8
			c-10.7-1.6-11.1,6.7-24.8,5.6c4.6,8.2,15.6,3.7,23.3,6c-8.2,0.8-22.7,4.8-29,16.1c-4,7.2-4,16.4-0.1,19.3
			c2.6-7.2,1.9-16.7,11.2-19.2c5.9-1.6,8.4,4.1,19.8,2.4c7.4-1.1,15.2-12.3,15.5-15.2C382.3,165.4,388.5,200.6,375.1,218.1z"/>
		<path class="st5" d="M162.2,271c-3.1,26.5,15.6,56.5,46,61.3c0.2,0,0.4,0,0.6,0.1c7.8,1.8,15.6,2.1,27.8-4.6
			c11.7-6.4,16.8-21.4,16.9-30.7c0-5.4-0.9-10.6-3.3-15.4c-2.6-5.1-7-11.6-11.4-15.4c-8.4-7.2-19.2-9.5-30-6.7
			c-10.9,2.8-19,12.5-21.6,23.5c-2.4,10,1.4,22.3,11.6,26.3c3.1,1.2,6.5,1.5,9.6,0.2c2.1-0.9,3.8-2.5,4.9-4.4
			c1.2-2.1,1.1-4.4,0.8-6.7c-0.4-3-1.8-9,2-9.9c3.8-0.9,7.2,6.7,7.7,7.6c0.3-1.2,2.7-10.4,8.6-6c4,3,8.1,10.2,8.4,15.6
			c0.7,11.8-5.1,17.6-10.8,20.7c-3.7,1.8-7.7,3-11.8,3.3c-26.5,2.2-46.2-19.8-50.6-40.8c-5.1-22.1,6.4-43.1,20.7-57.2
			c14.7-14.2,34.1-21.7,52.8-21.9c37.5,0.4,69.8,26.4,86.7,53.8c17.6,28.4,21.2,61.4,14.5,89.2c-2.2,8.3-5,16.2-8.1,23.7
			c4-12.4,6.1-25.1,7.8-40.3c0.5-10.1-0.1-20.8-2.2-29.9c-2.2-9.4-12.6-43.8-41-66.7c-30.8-24.8-74.6-27.4-105.1-2.1
			c-9.3,6.4-16.8,14.7-20.9,23.3c-1.2,3.8,2.5,6.2,5.3,2.6c7.9-8.2,16.2-25.3,34.3-20.4c6.5,1.8,10.4,7.7,17.2,8.5
			c8.6,1,17.4-5.2,25.8-3.2c9.1,2.2,10.2,13.2,18.8,13.4c0.5-5.8-3.4-11.8-6.8-15.8c-3.2-3.8-7.8-8.9-11.4-11.4
			c-12.8-9-27.4-10.2-40.9-6.7c14.6-5,30.2-5.8,45.1-2.5c23.7,5.2,42.4,19.3,56,38.8c0.9,1.3,1.8,2.6,2.7,3.9
			c-10-7.8-27.6-11-43.5,0.2c-17,12.3-9.7,44,8.3,45c8.4,1.7,14.7-5.4,15-9.5c0.9-4.3-0.1-6.5-1-6.6c-2.2-1.1-2.4,11.2-12.9,9.3
			c-11.1-0.7-17.3-21.5-4.9-32.3c12.3-10.8,32.2-7.8,40.9,1.9c4.7,4.5,7.8,8.9,9.8,12.1c2.4,6,4,12.5,5.4,21.9
			c0.2,1.1,0.3,2.1,0.4,3.2c-0.8-2.4-1.7-4.4-2.8-5.9c-5.9-8.9-19.5-14-30.6-4.1c-6.6,5.9-12.3,17-3.7,26.4c7.9,8.6,23.3,5,23.7-6.5
			c0.2-4.5-2.8-7.5-5.8-7.7c-4.9-0.4-5.9,3.8-8.7,3.6c-4.2-0.3-4.5-4.6-3.3-7.5c0.6-1.6,1-4,4.9-6.4c8-4.9,18.8,0,22.5,8.5
			c5,11.4,2.9,20.8,1.1,32.6c-0.9,6-1.5,12.8-0.7,20c-4.7,18.6-13.2,34.4-23.1,51.5c-7.4,8.6-16.4,18.3-26.6,28.5
			c-10,8.6-20.2,15.8-30.2,21.4c-5.5,3.1-10.9,6.4-16.2,9.6c18.1-23.3,29-48.9,30.6-64.5c1.3-0.5,2.8-1.5,4.3-3
			c2.9-3,5.6-8.3,6.5-14.5c0.3-2.8,2.3-17.7-7.1-33.9c-4.5-8-12-15.7-21.5-20.8c-9.7-5.3-21.9-6.6-32.6-3.4
			c-10.7,3.1-19.7,10.5-24.6,19.2c-4.9,8.2-5.5,17.4-3.8,24.6c0.5,4.1,1.7,7.9,3.6,11.2c3.2,5.5,7.7,9.4,12.3,12
			c9.5,5.2,18.9,4.4,24.5,2.8c5.7-1.8,8.4-4.1,8.4-4c0-0.1-3,1.8-8.7,2.8c-5.6,0.9-14.4,0.5-22.1-5c-7.7-5.2-13.8-16.1-10.5-26.7
			c2.6-10.5,14.4-18.2,24-14.4c4.7,1.5,8.5,5.5,9.9,9.7c1.3,4.1,0.3,8.8-2.4,11.7c-5.4,6.7-14.4,3.1-15.9-2.1
			c-1.6-5,2.8-9.5,5.9-9.6c3.5-0.6,6.1,1.2,7.6,0.2c0.7-0.5,1-1.8,0.1-3.4c-0.8-1.7-3-3.9-6.8-4.9c-3.6-1.1-9.2-0.1-13.2,3.7
			c-4.2,3.6-6.9,10.3-5.2,17.3c1.8,7,7.5,12.8,15.3,14.7c7.7,2,16.9-1.4,21.8-7.8c5.4-6.3,7-15.8,3.9-23.8c-3.2-8-10-13.8-18-15.8
			c-7.2-2-15.1-0.5-21,3.3c4.7-4.1,10.5-7.1,16.7-8.3c9.1-1.8,18.6,0.2,25.7,4.9c7.3,4.8,12.6,11.4,15.6,17.8
			c6,13.2,3.6,23.9,3.4,26c-1.1,9-2.8,17.2,0.7,19.6c0.1,0.1,0.3,0.1,0.4,0.1c-3.3,8.6-9.6,23.6-20.7,41.6
			c-6.5,10.9-17.3,26.2-28.5,37.3c-13.8,13.8-29.9,24.6-47.3,34.8c-6.4,3.7-13.8,5.2-20.5,7.7c3.4-3.2,5.2-7.3,7.4-12.7
			c2.2-5.6,4.2-12.8,4.7-21.5c1-18.1-7.2-38.4-9.7-44.9c6.5-14.1-4.6-37.9-22.3-40.7c15.7,14.2,1.3,15.4,12,32
			c-13.8-8-7.3-21.8-17.6-28.6c-5.7-3.7-15.1,1.1-20-6.6c-3.4-5.4,3.3-17.8,13.6-20.1c-3.4,3.6-7.5,10.5-0.3,13.1
			c11.3,4,20-12.5,8.9-18.4c-3.7-2-9.8-1.3-14.4,1.2c-9.6,4.9-15.3,13.4-16.4,20.4c-2.2,14,1.8,21.4,10,24.9
			c10.9,4.8,29.2,9.1,41.9,33.4c9.7,18.6,11.4,38.8,5.4,55.3c-4.1,11.4-14.1,16.9-16.5,17.6c1.3-2.2,2.6-4.7,4.2-7.8l0,0
			c11.2-22.9,7.1-51.4-10.3-70.9c-15.2-17-36.2-22.4-57.6-14.8c-10.7,3.8-20.4,11.8-25.3,20.9c-3.7,6.9-4.5,14.3-2.4,21.2
			c1.7,5.5,8.5,11.8,12,13c4.7,1.7,10,0.9,14.1-2.2c1.3-1,2.4-2.2,3.1-3.6c1.7-3.2,1.6-7-0.1-10.3c-1.5-2.7-4.4-6.1-12.4-4.2
			c-2.9,0.7-4.7-0.4-5.7-1.5c-2.7-2.7-2.7-7.6-1.9-10.9c0.3-1.4,0.9-2.8,1.6-4.2c2.9-5.5,8.4-9.4,11-11.3c5.1-3.7,11.5-5.5,18.9-5.5
			c10.8,0,22.9,3.1,32.2,8.4c6.8,3.9,13.1,9.8,16.8,15.8c11.1,18.1,10.6,38.8,1.5,58.2c-4.1,8.8-15.7,14.1-19.3,14.9
			c8.4-8.3,14.6-18.7,16.7-30c2.3-12.5,2.6-26.8-0.8-36.5c-4.3-12-13.2-7.8-19.6-22.9c-6,9.4,4.8,18.4,6.7,27.7
			c-5.4-8.2-17.6-21.2-33-21.4c-9.7-0.2-19.5,4.9-20.3,10.6c9.1-1.3,18.5-7.3,26.4,1c5,5.3,0.4,11.1,8.5,22.1
			c5.2,7.1,21.3,9,24.6,7.8c2,18.1-8,35-22.5,44.1c-20.9,13.1-43.5,13-61.2,8.1c-27.6-7.7-36.7-24.4-46.2-26.6
			c-6.1,14.7,30.3,44.6,56.5,51.6c41.2,11,80,1.9,114.2-5.4c29.6-6.3,54.8-26.8,79.5-15.5c10.2,4.7,16.8,14.8,17.9,25.6
			c1,8.8-1.6,18-8.6,24.9c-6.2,6.2-16.5,8.1-23.7,4.7c-5.3-2.6-9.6-10.3-8.8-15.1c0.8-4.8,5-8.5,9.2-9.4c-6,5.1-3.3,11.5-0.8,14.4
			c3.8,4.3,11.7,4.8,14.8,3.5c14.4-6.2,15.9-25.4,3-35.6c-7.8-6.2-17.9-5.2-25.5-0.9c-17.1,9.5-22.6,32.6-9.2,46.6
			c7.2,7.6,19.4,11.5,34.6,7.6c14.1-3.5,25.7-21.6,24.9-39.6c-0.8-18-14.1-35.8-35.4-37.7c-22.7-2.1-46.7,13.9-73.9,21.7
			c-19.7,5.6-55.4,9.6-88.8,5.9c45,0.7,81.9-17,104.7-28.3c4.1-2,21.5-11.1,37.5-19.4c0.2,1,0.6,2.1,1.1,3.2
			c4.7,9.6,18.1,11.2,27.8,9.9c5.3-0.7,10.4-2.5,15.1-5.1c4.4-2.4,8.7-5.2,13-7.7c4.7-2.8,9.1-6.3,14.1-8.6c2.5-1.2,5.1-2.3,7.8-3
			c2.7-0.8,5.3-1.1,8-1.4c9.6-1.1,21.9,6.5,26.5,11.6c-2.5-5.4-9-11.4-13-14.1c-9.3-6.2-23.9-10.6-35.1-10.3
			c-1.7,0.1-5.1,0.4-9.6,0.9c9.7-2.7,19.6-4.5,28.4-4.5c16,0,38.5,8.5,52,21.1c4.1,3.9,9.8,11.6,15.9,9.7c6.7-2,3.1-11.3-3.9-16.8
			c-11.8-9.4-36.5-17.5-48.6-21.5c16.8-4.2,40.2,0.7,56.7,14.1c6.8,5.6,10.6,10.3,16.3,13.9c4.8,3,12.2,8,15.6,2.4
			c3.2-5.1-9.9-12.7-15.3-17c-6.9-5.6-18.5-11-25-15.5c15.9-1.2,43.8,2.7,47-23.3c1.4-11.5-5.5-24.6-20-28.8
			c-11.7-3.4-22.9,1.6-26.2,10.3c-3.1,8.3,0.5,18.5,11.8,20.1c4.9,0.7,9.9-1.4,12.2-5.1c2.7-4.3,2.2-10.5-3.7-13.3
			c-7.7-3.7-14.8,4.5-10.1,9.7c-13-8,3.5-20.5,12.7-16.9c7.8,3.1,14,9.2,15.9,16.2c2.5,9.1-1.5,19.3-11.4,21.5
			c-17.7,4.6-37.3,1.1-54.7,1.7c-46.4,1.6-80,11.1-116.7,33c-34.5,20.6-70.9,40.4-113.2,49c4.6-2.1,2.8-4.7,6.6-7.2
			c6.6-2,19.1-3.8,25.6-6.1c35-12.1,64-30.6,95.8-51.3c56.5-35.8,67.1-45.9,107-71.2c3.8,2.9,13.2-1.1,18-3c3-1.2,6.3-2.1,10-2.9
			c13.4-1.5,28.1-5.5,32.3-1.9c22,19.1,16.9,54.5,50.4,59.7c7,1.1,15.8-3.2,21.4-11.2c2.8-3.9,3.8-9.5,2.1-13.5
			c-5-11.8-22.1-7.1-18.9,4.5c2,7.4,9.2,5,13,2.5c-3.1,9.2-15.9,12.9-21,8.5c-7.3-6.2-1.9-14.2-5.2-20.4c-6-11.3-20.3-8.1-27.2-23
			c15.8,13.8,18,0.3,31,18.3c-1.6-17.5-24.5-33.2-39-30.1c-6.3-3.8-58.9-4.5-69.8,6.4c-16.2,7.8-28.1,16-42.8,26.3
			c20.8-18.7,37-38.4,45-49.9c10.7-15.3,19.2-31.1,26.2-47.1c18.6-26.7,32.7-42.6,38.1-46.7c33.5-25.5,108.3-27.3,121.6,14.8
			c5.1,16.3-10.3,48.9-32.1,36.6c-20.4-11.5,12.7-21.4-0.6-37.4c-4.6-5.6-18-4.3-25.8,2c-11.1,9.2-9.2,36.1,8.4,51
			c20.8,17.5,58.9-2.6,60.8-25.3c3.4,21.2-14,45.1-39.1,46.5c-4.9,0.3-22-7.2-23.8,3.8c-3.9,22.5,21.4,30.3,40.5,23.6
			c46.4-16.2,42.6-71.4,28.4-98.7c-14-27-30.2-34.2-55.6-40.2c-10.5-2.5-21.2-3.8-31.8-3.1c7.1-1.6,14.7-2.6,23-2.8
			c9-0.1,18.5,1.6,27.5,4.9c15.7,5.7,29.2,15.8,38.9,29.2c8.6,11.4,14,25.6,16.2,41.2c4.1,29.3,6.2,20.9,5.4,2.9
			c-0.8-17-6.4-33.3-16.1-47.3c-9.7-14.7-25-26.5-43-33c-15.8-5.7-32.2-7-47.4-3.7c-32.7,5.2-63.1,24.8-81.3,52.5
			c-0.7,1.1-1.4,2.2-2.2,3.3c5.3-15.6,9.4-31.3,12.8-46.8c0.6-0.9,1.1-1.8,1.6-2.7c10.1-17.3,5.8-33.3,21.7-49.4
			c11-11.2,22.9-16.1,34.2-6.9c7.4,6,9.1,20,0.8,27.7c-3.8,3.5-10.6,6.8-13.8,2.4c-1.8-2.5,1.3-8.1-1.4-10.5
			c-6.9-6.3-18.2,10.2-6.2,18.4c8.5,5.8,28.4-0.2,32-14.1c2.5-9.4,2.7-23.3-11.1-32.2c7.6-0.6,16.6,9.3,21,19.1
			c3,6.7,0.5,14.8,3.1,19.2c3.1,5.2,9.6,4.2,12,0.6c7.8-11.8-13.4-36-27.5-41c27.2-2.8,55.6,22.3,52.3,46.6
			c-1.8,13.3,15.4,13,13.6,0.8c-4.7-27.6-33.4-52.3-55.7-53.5c-19.7-1.1-35.6,3.8-51.4,14.2c-3.2,2.1-6.5,5.1-9,7.9
			c1.2-6.1,1.1-16.1,7.8-19.7c5.3-2.8,29.3-12.7,21.6-21.4c-6.6-7.4-22.1,9.5-26.4,14.9c-3.3,4.3-5.7,9.1-7.5,14.4
			c4.6-44.9-7.1-90,22.2-118.3c13.1-12.6,32.2-16.4,49.1-11.9c13.8,3.7,26,13,32.4,27.6c5.6,13,2.5,29.6-7,38.4
			c-7,6.5-21.2,8.4-28,4.3c-6.7-4.1-9.8-12.6-8.7-19.4c4.2,12,15.4,11.8,21.2,9.7c8.7-3.1,14.2-14.7,14-20.2
			c-0.9-25.3-28.9-38.8-51.8-25.4c-13.9,8.1-18.3,23.8-16.4,37.8c4.2,31.3,35.6,53.3,64.6,41.3c15.6-6.4,28.7-22.4,31.9-47.6
			c3-23.2-17.3-51.4-44.8-60.9c-27.5-9.4-62.1,0.1-77.5,31c-10.5,20.9-10.3,47-9.9,74.9c-0.8-4.1-3-8.7-9.5-18l0,0
			c-12.7-17.4-35.5-25.6-56.8-20.4c-18.7,4.6-31,18.1-33.8,37c-1.4,9.5,0.7,19.9,5.6,27.1c3.7,5.5,8.8,9,14.8,10.2
			c4.7,0.9,12.1-1.6,14.5-3.8c3.1-2.9,4.6-7.1,3.9-11.3c-0.2-1.4-0.7-2.7-1.4-3.8c-1.7-2.5-4.6-4-7.7-4c-2.6,0-6.3,0.8-8.1,7.6
			c-0.6,2.4-2.2,3.3-3.4,3.7c-3.1,0.9-6.7-1-8.8-2.9c-0.9-0.8-1.7-1.8-2.5-2.9c-2.9-4.4-3.7-10-4.1-12.7c-0.7-5.3,0.4-10.7,3.3-16.2
			c4.3-8.1,11.4-15.8,19-20.7c5.6-3.6,12.5-5.9,18.4-6.3c17.9-1.1,33.9,6.9,43.9,21.9c10.4,15.5,12.5,36.1,5.6,53.9
			c-1.3,3.3-4.3,7-7.5,10.9c-2.7,3.3-5.4,6.6-7.5,10.1c-3.6,5.9-4.4,9.9-2.6,12.6c0.3,0.5,0.7,0.9,1.2,1.3c1,0.9,4.7,5.5,9.8-0.7
			c6-7.2,10.9-24,13.4-36.2c-0.2,4.2-0.4,8.4-0.8,12.6c-3.4,35.7-20.9,98.8-50.2,149.3c8.3-21.2,12.5-45.4,7.2-71
			c-6.5-37.5-34.1-75.5-76.4-92.2C232.7,189.9,170.5,216.1,162.2,271z"/>
		<path class="st5" d="M303.4,317.3c1.1,3.5,4.3,5,7.3,3.3c0.6-0.3,1.3-1.1,1.8-1.7c2.4-1.8,3.9,1.1,3.4,2.8c-0.7,2.3-2.4,4-6.7,3.7
			c-5.5-0.4-8-3.3-7.8-7.9c0.1-3.5,1.3-6.2,3-8.3C303,311.4,302.5,314.4,303.4,317.3z"/>
		<path class="st5" d="M407.5,34.6c-5.9,7.2-10.2,15.6-13.7,24.3c-3.8,9.4-6.2,19.2-7.5,29.3c-1.3,10.1-1.2,20.3-0.7,30.4
			c0.5,9.8,1.8,19.7,4.6,29.2c0.4-8.9,0.3-17.8,1.5-26.6c0.6-4.5,1.5-8.8,2.7-13.1c1.2-4.1,2.9-7.9,4.6-11.8
			c3.5-7.8,8.5-14.7,14.5-20.8c5.1-5.2,11.4-8.8,17.9-11.6c4.2-1.8,8.4-3.2,13-3.9c4.9-0.8,9.9-0.9,14.9-1.2c4.7-0.3,9.4-1,14.1-1.3
			c4.9-0.4,9.8-1.1,14.5-2.4c3.8-1.1,7.6-2.5,11-4.5c3.6-2.1,7.7-5,9.5-8.9c3.6-7.4,0.3-16.5-4.8-22.2c-5.9-6.6-14.3-10.7-22.8-12.7
			c-9.5-2.3-19.7-2.6-29.2-0.6C434.1,9.7,418.7,20.9,407.5,34.6z M454,18c7.6-1.6,15.9-1.4,23.9,0.5c6.4,1.5,12,4.4,15.8,8.1
			c0.3,0.3,0.6,0.6,0.8,0.9c2.5,2.8,3.9,6.8,3,8.8c0,0.1-0.8,1.4-4.7,3.7c-2.2,1.3-4.9,2.4-8,3.3c-3.7,1-7.6,1.7-12.2,2
			c-2.3,0.2-4.6,0.4-6.9,0.6c-2.3,0.2-4.7,0.5-7,0.6l-2.9,0.2c-4.2,0.2-8.5,0.5-13,1.2c-5.3,0.8-10.3,2.3-16,4.8
			c-9.2,4-16.1,8.6-21.7,14.3c-0.6,0.6-1.2,1.3-1.8,1.9c0.6-1.9,1.3-3.7,2-5.5c3.7-9,7.4-15.7,11.8-21.1
			C427.5,29.4,440.6,20.8,454,18z"/>
		<path class="st5" d="M518.2,344.4c5.5-6.8,15.4-35-18.5-48.7c-25.9-10.5-81.7-7.7-107.2,30.8c-19.5,29.4-29.3,66.9-62.9,94.9
			c0,0,32.3-12.5,57.9-72.1c27.4-63.8,78.3-51.1,88.4-47.1c10.2,4,22.6,8.4,26.8,20c2.5,6.8-13.6,24-4.3,29
			C505.4,354.8,512.7,351.2,518.2,344.4z"/>
		<path class="st5" d="M488,63.3c0,0,15.4,10.5,21.9,12.6c6.5,2.2,15.5-2.4,13.2-12C520.7,53.5,507.4,49.5,488,63.3z"/>
		<path class="st5" d="M363.5,404.8c0,0,53.9-3.4,67.8,6.8c0,0-8-21-20-21.3c0,0,8-5.5,10.5-17.2c0,0-12.3-3.7-20.3,1.2
			c0,0,3.9-14.3-4-26.2C393.1,365.3,380,385.9,363.5,404.8z"/>
	</g>
</g>
</svg>
